<?xml version="1.0" standalone="no"?>
<!DOCTYPE svg PUBLIC "-//W3C//DTD SVG 20010904//EN"
 "http://www.w3.org/TR/2001/REC-SVG-20010904/DTD/svg10.dtd">
<svg version="1.0" xmlns="http://www.w3.org/2000/svg"
 width="1024.000000pt" height="1024.000000pt" viewBox="0 0 1024.000000 1024.000000"
 preserveAspectRatio="xMidYMid meet">

<g transform="translate(0.000000,1024.000000) scale(0.100000,-0.100000)"
fill="#000000" stroke="none">
<path d="M5085 10119 c-252 -16 -667 -103 -915 -193 -336 -120 -557 -232 -855
-429 -331 -219 -608 -465 -886 -787 -242 -281 -517 -680 -694 -1005 -255 -469
-396 -806 -566 -1350 -25 -83 -76 -279 -105 -405 -13 -58 -33 -143 -44 -190
-30 -130 -87 -492 -112 -715 -20 -181 -22 -247 -22 -685 0 -434 2 -506 22
-680 23 -205 51 -388 78 -505 8 -38 25 -110 36 -160 55 -242 204 -679 303
-890 21 -44 47 -100 58 -125 79 -172 335 -569 477 -740 25 -30 52 -63 60 -74
133 -171 462 -476 636 -588 408 -264 672 -378 1057 -458 197 -40 489 -53 722
-30 421 39 884 233 1149 481 203 190 368 440 435 661 98 322 110 594 40 933
-100 483 -373 1093 -737 1642 -40 62 -71 117 -68 122 8 13 36 18 206 37 403
44 965 264 1355 530 164 111 264 193 448 365 121 114 149 135 225 170 382 176
558 289 752 480 234 231 403 518 486 824 66 248 90 458 81 720 -14 362 -83
670 -233 1025 -230 547 -673 1103 -1109 1390 -44 29 -98 65 -120 80 -66 46
-203 124 -320 183 -311 157 -696 280 -1050 338 -211 34 -528 45 -790 28z m600
-204 c447 -51 796 -155 1151 -343 284 -151 480 -293 733 -530 139 -131 345
-379 440 -532 179 -289 261 -468 357 -781 89 -291 116 -458 116 -719 1 -505
-135 -903 -417 -1221 -237 -268 -525 -449 -927 -582 -101 -34 -141 -44 -353
-87 -165 -34 -328 -45 -645 -44 -318 1 -435 11 -615 54 -44 10 -118 26 -165
36 -194 38 -572 188 -785 311 -174 100 -214 126 -310 204 -208 168 -360 332
-484 517 -38 57 -102 257 -108 337 -5 60 -3 73 15 95 19 23 26 25 114 25 86 0
100 -3 183 -39 52 -22 112 -41 143 -43 49 -5 54 -3 87 30 30 30 35 42 35 83 0
43 -4 51 -43 89 -74 71 -236 125 -423 140 -88 7 -270 -8 -369 -31 -71 -16
-232 -85 -327 -140 -148 -85 -312 -275 -338 -389 -20 -90 24 -155 104 -155 51
0 79 19 116 77 47 74 132 156 213 207 42 26 81 45 87 41 5 -3 10 -36 10 -73 0
-37 7 -94 16 -127 8 -33 19 -77 25 -98 28 -112 181 -376 281 -487 87 -96 192
-201 213 -212 11 -6 49 -34 85 -63 114 -90 330 -220 525 -315 261 -128 804
-279 1140 -316 296 -32 892 -21 1098 22 38 8 87 14 110 14 l41 0 -33 -34 c-31
-32 -372 -266 -387 -266 -4 0 -41 -19 -83 -43 -42 -24 -96 -52 -121 -62 -25
-11 -61 -29 -80 -42 -44 -27 -246 -106 -320 -123 -30 -7 -71 -20 -90 -28 -45
-19 -252 -67 -350 -81 -210 -30 -386 -41 -545 -32 -88 5 -163 6 -167 2 -4 -3
28 -45 71 -92 44 -48 118 -140 166 -205 49 -66 118 -159 155 -209 130 -174
325 -509 405 -695 18 -41 63 -142 99 -225 109 -243 163 -418 207 -665 28 -157
31 -454 6 -560 -9 -36 -18 -85 -22 -110 -8 -62 -81 -239 -141 -340 -80 -136
-280 -346 -375 -396 -17 -9 -53 -31 -79 -50 -58 -41 -190 -104 -320 -150 -318
-114 -638 -140 -950 -77 -163 33 -407 117 -555 191 -90 45 -293 163 -370 216
-327 224 -757 677 -928 978 -29 51 -73 125 -98 163 -56 85 -170 300 -198 373
-12 30 -38 88 -58 130 -20 43 -46 102 -58 132 -13 30 -39 95 -59 144 -69 168
-158 494 -220 806 -75 377 -126 976 -112 1310 16 376 51 736 92 955 91 483
171 773 317 1160 115 302 197 475 400 840 43 77 96 167 117 200 22 33 52 79
67 103 98 151 252 356 349 462 12 14 58 66 102 115 356 401 832 749 1315 960
144 62 470 179 532 189 22 4 58 13 80 21 65 21 320 66 460 80 181 18 492 18
650 0z"/>
<path d="M4873 8652 c-116 -41 -242 -152 -345 -305 -64 -95 -171 -309 -208
-412 -75 -216 -114 -352 -125 -442 -11 -90 60 -171 139 -158 57 9 71 19 117
87 44 64 76 140 139 323 21 61 59 156 84 212 25 55 46 103 46 107 0 4 13 26
29 49 15 23 36 58 45 78 22 47 92 114 135 128 82 27 139 9 223 -70 97 -91 158
-222 183 -392 44 -303 70 -402 116 -443 84 -75 215 -35 235 72 9 48 -12 283
-37 411 -19 100 -34 143 -114 337 -96 233 -166 318 -325 395 -70 33 -83 36
-180 39 -82 2 -117 -2 -157 -16z"/>
<path d="M6500 8390 c-45 -14 -154 -81 -193 -118 -101 -96 -209 -297 -256
-477 -44 -165 -71 -309 -71 -382 0 -60 2 -67 33 -98 59 -59 156 -59 209 -2 53
57 67 94 113 297 68 302 116 397 232 459 42 22 136 25 173 6 63 -33 124 -105
159 -190 34 -80 93 -305 106 -400 12 -82 34 -157 52 -178 32 -35 89 -57 147
-57 50 0 59 3 90 35 63 62 65 91 22 291 -35 167 -106 386 -157 486 -45 89
-163 213 -264 276 -62 39 -164 62 -274 61 -53 0 -107 -4 -121 -9z"/>
<path d="M7925 4205 c-624 -98 -1142 -571 -1300 -1185 -61 -236 -61 -556 0
-790 114 -441 409 -812 815 -1024 242 -126 450 -176 735 -176 210 0 375 27
544 90 500 184 877 600 1005 1110 37 144 46 224 46 395 0 288 -53 502 -184
751 -236 445 -671 753 -1171 830 -110 17 -380 16 -490 -1z m460 -311 c546 -94
971 -524 1061 -1072 19 -118 14 -348 -11 -462 -110 -499 -505 -892 -1000 -995
-168 -35 -402 -30 -570 11 -422 105 -770 428 -909 844 -201 600 71 1261 636
1549 108 54 258 106 368 125 105 19 316 19 425 0z"/>
</g>
</svg>
